# xmcd
#
# Track frame offsets: 
#        151
#        19719
#        38488
#        59578
#        83378
#        91017
#        109824
#        132300
#        149890
#        166577
#        186658
#        225735
#
# Disc length: 3221 seconds
#
# Revision: 1
# Processed by: cddbd v1.5.2PL0 Copyright (c) Steve Scherf et al.
# Submitted via: ExactAudioCopy v0.99pb5
#
DISCID=990c930c
DTITLE=Santana Carlos - The best of
DYEAR=1969
DGENRE=Freestyle
TTITLE0=Oye Como Va
TTITLE1=Jingo
TTITLE2=Samba Pa Tí
TTITLE3=Black Magic Woman - Gypsy Queen
TTITLE4=Shango
TTITLE5=Well All Right
TTITLE6=Europa
TTITLE7=Evil Wars
TTITLE8=American Gypsy
TTITLE9=Hold On
TTITLE10=Persuasion
TTITLE11=Winning
EXTD=CD editado conjuntamente con el Suplemento Dominical del dirio el
EXTD=pañol "El Mundo" el 19-07-98
EXTT0=
EXTT1=
EXTT2=
EXTT3=
EXTT4=
EXTT5=
EXTT6=
EXTT7=
EXTT8=
EXTT9=
EXTT10=
EXTT11=
PLAYORDER=
